<svg width="375" height="89" viewBox="0 0 375 89" fill="none" xmlns="http://www.w3.org/2000/svg">
<mask id="path-1-inside-1_0_335" fill="white">
<path fill-rule="evenodd" clip-rule="evenodd" d="M21.4165 0.356201C10.1124 0.356201 0.94873 9.51993 0.94873 20.8239V68.4012C0.94873 79.7052 10.1125 88.8689 21.4165 88.8689H353.848C365.152 88.8689 374.316 79.7052 374.316 68.4012V20.8239C374.316 9.51992 365.152 0.356201 353.848 0.356201H21.4165ZM82.3861 19.6106L78.8748 50.1999L73.6078 19.6106H55.5783L50.1762 49.7948L46.7324 19.6106H30.2561L39.3045 68.6345H59.1572L64.4917 41.2865L69.0835 68.6345H89.814L98.8625 19.6106H82.3861ZM160.359 44.1226C160.359 35.3892 160.516 27.2186 160.831 19.6106H144.963V37.9777H120.113V19.6106H104.245C104.605 28.344 104.785 36.5146 104.785 44.1226C104.785 51.7305 104.605 59.9011 104.245 68.6345H120.113V50.2674H144.963V68.6345H160.831C160.516 61.0266 160.359 52.8559 160.359 44.1226ZM225.046 21.5689L226.329 19.6106H207.962C206.882 21.8615 204.789 25.778 201.682 31.3601C199.026 36.132 196.911 40.161 195.335 43.4473C194.21 41.1964 192.116 37.3249 189.055 31.8328C185.994 26.4308 183.788 22.3567 182.438 19.6106H163.53C165.241 22.3567 167.717 26.1156 170.958 30.8875C175.1 37.1449 178.296 42.0743 180.547 45.6757C182.798 49.232 184.756 52.6984 186.422 56.0747V68.6345H204.046V57.2226C206.342 52.4058 209.2 47.1387 212.622 41.4215C216.088 35.6593 220.23 29.0418 225.046 21.5689ZM270.799 32.5756C273.365 32.6206 277.326 32.7782 282.684 33.0483V19.6106H243.451V33.0483C248.628 32.7782 252.567 32.6206 255.268 32.5756V55.6695C252.567 55.6245 248.628 55.4669 243.451 55.1968V68.6345H282.684V55.1968C277.372 55.4669 273.41 55.6245 270.799 55.6695V32.5756ZM291.876 56.4123C290.886 58.3931 289.625 60.5314 288.095 62.8273C292.236 64.9431 296.895 66.5637 302.072 67.6891C307.249 68.7696 312.336 69.3098 317.333 69.3098C326.652 69.3098 333.607 67.9367 338.199 65.1907C342.791 62.3996 345.087 57.8529 345.087 51.5504C345.087 47.0487 342.926 43.7174 338.604 41.5566C334.282 39.3507 327.35 38.2478 317.806 38.2478C313.935 38.2478 310.963 37.9327 308.893 37.3024C306.867 36.6272 305.854 35.7493 305.854 34.6689C305.854 33.5885 306.597 32.7782 308.082 32.238C309.568 31.6528 312.449 31.3601 316.726 31.3601C320.282 31.3601 324.379 31.9904 329.015 33.2509C333.652 34.4663 337.118 35.9969 339.414 37.8426C339.594 37.3925 339.819 36.7172 340.09 35.8169C341.53 31.5402 342.903 27.9163 344.209 24.9452C340.247 22.8744 335.79 21.2538 330.839 20.0833C325.932 18.8678 321.137 18.2601 316.456 18.2601C308.397 18.2601 301.847 19.7007 296.805 22.5818C291.763 25.4629 289.243 29.9421 289.243 36.0194C289.243 40.2961 291.313 43.4023 295.455 45.338C299.596 47.2288 306.259 48.1741 315.443 48.1741C323.816 48.1741 328.002 49.5472 328.002 52.2932C328.002 53.0585 327.237 53.7788 325.707 54.454C324.176 55.0843 321.542 55.3994 317.806 55.3994C314.16 55.3994 310.221 54.8817 305.989 53.8463C301.757 52.8109 298.043 51.3704 294.847 49.5246C293.902 52.1357 292.911 54.4315 291.876 56.4123Z"/>
</mask>
<path fill-rule="evenodd" clip-rule="evenodd" d="M21.4165 0.356201C10.1124 0.356201 0.94873 9.51993 0.94873 20.8239V68.4012C0.94873 79.7052 10.1125 88.8689 21.4165 88.8689H353.848C365.152 88.8689 374.316 79.7052 374.316 68.4012V20.8239C374.316 9.51992 365.152 0.356201 353.848 0.356201H21.4165ZM82.3861 19.6106L78.8748 50.1999L73.6078 19.6106H55.5783L50.1762 49.7948L46.7324 19.6106H30.2561L39.3045 68.6345H59.1572L64.4917 41.2865L69.0835 68.6345H89.814L98.8625 19.6106H82.3861ZM160.359 44.1226C160.359 35.3892 160.516 27.2186 160.831 19.6106H144.963V37.9777H120.113V19.6106H104.245C104.605 28.344 104.785 36.5146 104.785 44.1226C104.785 51.7305 104.605 59.9011 104.245 68.6345H120.113V50.2674H144.963V68.6345H160.831C160.516 61.0266 160.359 52.8559 160.359 44.1226ZM225.046 21.5689L226.329 19.6106H207.962C206.882 21.8615 204.789 25.778 201.682 31.3601C199.026 36.132 196.911 40.161 195.335 43.4473C194.21 41.1964 192.116 37.3249 189.055 31.8328C185.994 26.4308 183.788 22.3567 182.438 19.6106H163.53C165.241 22.3567 167.717 26.1156 170.958 30.8875C175.1 37.1449 178.296 42.0743 180.547 45.6757C182.798 49.232 184.756 52.6984 186.422 56.0747V68.6345H204.046V57.2226C206.342 52.4058 209.2 47.1387 212.622 41.4215C216.088 35.6593 220.23 29.0418 225.046 21.5689ZM270.799 32.5756C273.365 32.6206 277.326 32.7782 282.684 33.0483V19.6106H243.451V33.0483C248.628 32.7782 252.567 32.6206 255.268 32.5756V55.6695C252.567 55.6245 248.628 55.4669 243.451 55.1968V68.6345H282.684V55.1968C277.372 55.4669 273.41 55.6245 270.799 55.6695V32.5756ZM291.876 56.4123C290.886 58.3931 289.625 60.5314 288.095 62.8273C292.236 64.9431 296.895 66.5637 302.072 67.6891C307.249 68.7696 312.336 69.3098 317.333 69.3098C326.652 69.3098 333.607 67.9367 338.199 65.1907C342.791 62.3996 345.087 57.8529 345.087 51.5504C345.087 47.0487 342.926 43.7174 338.604 41.5566C334.282 39.3507 327.35 38.2478 317.806 38.2478C313.935 38.2478 310.963 37.9327 308.893 37.3024C306.867 36.6272 305.854 35.7493 305.854 34.6689C305.854 33.5885 306.597 32.7782 308.082 32.238C309.568 31.6528 312.449 31.3601 316.726 31.3601C320.282 31.3601 324.379 31.9904 329.015 33.2509C333.652 34.4663 337.118 35.9969 339.414 37.8426C339.594 37.3925 339.819 36.7172 340.09 35.8169C341.53 31.5402 342.903 27.9163 344.209 24.9452C340.247 22.8744 335.79 21.2538 330.839 20.0833C325.932 18.8678 321.137 18.2601 316.456 18.2601C308.397 18.2601 301.847 19.7007 296.805 22.5818C291.763 25.4629 289.243 29.9421 289.243 36.0194C289.243 40.2961 291.313 43.4023 295.455 45.338C299.596 47.2288 306.259 48.1741 315.443 48.1741C323.816 48.1741 328.002 49.5472 328.002 52.2932C328.002 53.0585 327.237 53.7788 325.707 54.454C324.176 55.0843 321.542 55.3994 317.806 55.3994C314.16 55.3994 310.221 54.8817 305.989 53.8463C301.757 52.8109 298.043 51.3704 294.847 49.5246C293.902 52.1357 292.911 54.4315 291.876 56.4123Z" fill="#EFEFEF" fill-opacity="0.15"/>
<path fill-rule="evenodd" clip-rule="evenodd" d="M21.4165 0.356201C10.1124 0.356201 0.94873 9.51993 0.94873 20.8239V68.4012C0.94873 79.7052 10.1125 88.8689 21.4165 88.8689H353.848C365.152 88.8689 374.316 79.7052 374.316 68.4012V20.8239C374.316 9.51992 365.152 0.356201 353.848 0.356201H21.4165ZM82.3861 19.6106L78.8748 50.1999L73.6078 19.6106H55.5783L50.1762 49.7948L46.7324 19.6106H30.2561L39.3045 68.6345H59.1572L64.4917 41.2865L69.0835 68.6345H89.814L98.8625 19.6106H82.3861ZM160.359 44.1226C160.359 35.3892 160.516 27.2186 160.831 19.6106H144.963V37.9777H120.113V19.6106H104.245C104.605 28.344 104.785 36.5146 104.785 44.1226C104.785 51.7305 104.605 59.9011 104.245 68.6345H120.113V50.2674H144.963V68.6345H160.831C160.516 61.0266 160.359 52.8559 160.359 44.1226ZM225.046 21.5689L226.329 19.6106H207.962C206.882 21.8615 204.789 25.778 201.682 31.3601C199.026 36.132 196.911 40.161 195.335 43.4473C194.21 41.1964 192.116 37.3249 189.055 31.8328C185.994 26.4308 183.788 22.3567 182.438 19.6106H163.53C165.241 22.3567 167.717 26.1156 170.958 30.8875C175.1 37.1449 178.296 42.0743 180.547 45.6757C182.798 49.232 184.756 52.6984 186.422 56.0747V68.6345H204.046V57.2226C206.342 52.4058 209.2 47.1387 212.622 41.4215C216.088 35.6593 220.23 29.0418 225.046 21.5689ZM270.799 32.5756C273.365 32.6206 277.326 32.7782 282.684 33.0483V19.6106H243.451V33.0483C248.628 32.7782 252.567 32.6206 255.268 32.5756V55.6695C252.567 55.6245 248.628 55.4669 243.451 55.1968V68.6345H282.684V55.1968C277.372 55.4669 273.41 55.6245 270.799 55.6695V32.5756ZM291.876 56.4123C290.886 58.3931 289.625 60.5314 288.095 62.8273C292.236 64.9431 296.895 66.5637 302.072 67.6891C307.249 68.7696 312.336 69.3098 317.333 69.3098C326.652 69.3098 333.607 67.9367 338.199 65.1907C342.791 62.3996 345.087 57.8529 345.087 51.5504C345.087 47.0487 342.926 43.7174 338.604 41.5566C334.282 39.3507 327.35 38.2478 317.806 38.2478C313.935 38.2478 310.963 37.9327 308.893 37.3024C306.867 36.6272 305.854 35.7493 305.854 34.6689C305.854 33.5885 306.597 32.7782 308.082 32.238C309.568 31.6528 312.449 31.3601 316.726 31.3601C320.282 31.3601 324.379 31.9904 329.015 33.2509C333.652 34.4663 337.118 35.9969 339.414 37.8426C339.594 37.3925 339.819 36.7172 340.09 35.8169C341.53 31.5402 342.903 27.9163 344.209 24.9452C340.247 22.8744 335.79 21.2538 330.839 20.0833C325.932 18.8678 321.137 18.2601 316.456 18.2601C308.397 18.2601 301.847 19.7007 296.805 22.5818C291.763 25.4629 289.243 29.9421 289.243 36.0194C289.243 40.2961 291.313 43.4023 295.455 45.338C299.596 47.2288 306.259 48.1741 315.443 48.1741C323.816 48.1741 328.002 49.5472 328.002 52.2932C328.002 53.0585 327.237 53.7788 325.707 54.454C324.176 55.0843 321.542 55.3994 317.806 55.3994C314.16 55.3994 310.221 54.8817 305.989 53.8463C301.757 52.8109 298.043 51.3704 294.847 49.5246C293.902 52.1357 292.911 54.4315 291.876 56.4123Z" fill="url(#paint0_radial_0_335)"/>
<path d="M78.8748 50.1999L75.9183 50.709L81.8552 50.542L78.8748 50.1999ZM82.3861 19.6106V16.6106H79.7108L79.4057 19.2685L82.3861 19.6106ZM73.6078 19.6106L76.5642 19.1016L76.1353 16.6106H73.6078V19.6106ZM55.5783 19.6106V16.6106H53.0676L52.6252 19.0821L55.5783 19.6106ZM50.1762 49.7948L47.1956 50.1348L53.1293 50.3233L50.1762 49.7948ZM46.7324 19.6106L49.7131 19.2705L49.4096 16.6106H46.7324V19.6106ZM30.2561 19.6106V16.6106H26.6517L27.3059 20.1551L30.2561 19.6106ZM39.3045 68.6345L36.3544 69.179L36.8076 71.6345H39.3045V68.6345ZM59.1572 68.6345V71.6345H61.6285L62.1017 69.2089L59.1572 68.6345ZM64.4917 41.2865L67.4503 40.7897L61.5472 40.7121L64.4917 41.2865ZM69.0835 68.6345L66.1249 69.1313L66.5452 71.6345H69.0835V68.6345ZM89.814 68.6345V71.6345H92.311L92.7642 69.179L89.814 68.6345ZM98.8625 19.6106L101.813 20.1551L102.467 16.6106H98.8625V19.6106ZM160.831 19.6106L163.829 19.7348L163.958 16.6106H160.831V19.6106ZM144.963 19.6106V16.6106H141.963V19.6106H144.963ZM144.963 37.9777V40.9777H147.963V37.9777H144.963ZM120.113 37.9777H117.113V40.9777H120.113V37.9777ZM120.113 19.6106H123.113V16.6106H120.113V19.6106ZM104.245 19.6106V16.6106H101.118L101.247 19.7342L104.245 19.6106ZM104.245 68.6345L101.247 68.5109L101.118 71.6345H104.245V68.6345ZM120.113 68.6345V71.6345H123.113V68.6345H120.113ZM120.113 50.2674V47.2674H117.113V50.2674H120.113ZM144.963 50.2674H147.963V47.2674H144.963V50.2674ZM144.963 68.6345H141.963V71.6345H144.963V68.6345ZM160.831 68.6345V71.6345H163.958L163.829 68.5104L160.831 68.6345ZM226.329 19.6106L228.839 21.2547L231.881 16.6106H226.329V19.6106ZM225.046 21.5689L222.537 19.9248L222.531 19.9341L222.525 19.9435L225.046 21.5689ZM207.962 19.6106V16.6106H206.075L205.258 18.3124L207.962 19.6106ZM201.682 31.3601L204.304 32.8192L204.304 32.8189L201.682 31.3601ZM195.335 43.4473L192.652 44.789L195.392 50.2685L198.04 44.7443L195.335 43.4473ZM189.055 31.8328L191.675 30.3723L191.67 30.363L191.665 30.3538L189.055 31.8328ZM182.438 19.6106L185.13 18.2867L184.305 16.6106H182.438V19.6106ZM163.53 19.6106V16.6106H158.127L160.984 21.1969L163.53 19.6106ZM170.958 30.8875L173.46 29.2317L173.45 29.2167L173.44 29.2018L170.958 30.8875ZM180.547 45.6757L178.003 47.2657L178.007 47.2729L178.012 47.28L180.547 45.6757ZM186.422 56.0747H189.422V55.3749L189.112 54.7474L186.422 56.0747ZM186.422 68.6345H183.422V71.6345H186.422V68.6345ZM204.046 68.6345V71.6345H207.046V68.6345H204.046ZM204.046 57.2226L201.338 55.9318L201.046 56.5442V57.2226H204.046ZM212.622 41.4215L210.051 39.8751L210.047 39.881L212.622 41.4215ZM282.684 33.0483L282.533 36.0445L285.684 36.2034V33.0483H282.684ZM270.799 32.5756L270.852 29.5761L267.799 29.5225V32.5756H270.799ZM282.684 19.6106H285.684V16.6106H282.684V19.6106ZM243.451 19.6106V16.6106H240.451V19.6106H243.451ZM243.451 33.0483H240.451V36.2089L243.607 36.0442L243.451 33.0483ZM255.268 32.5756H258.268V29.5252L255.218 29.576L255.268 32.5756ZM255.268 55.6695L255.218 58.6691L258.268 58.7199V55.6695H255.268ZM243.451 55.1968L243.607 52.2009L240.451 52.0362V55.1968H243.451ZM243.451 68.6345H240.451V71.6345H243.451V68.6345ZM282.684 68.6345V71.6345H285.684V68.6345H282.684ZM282.684 55.1968H285.684V52.0404L282.531 52.2007L282.684 55.1968ZM270.799 55.6695H267.799V58.7217L270.851 58.6691L270.799 55.6695ZM288.095 62.8273L285.598 61.1632L283.73 63.9662L286.73 65.4988L288.095 62.8273ZM291.876 56.4123L289.217 55.0225L289.205 55.0465L289.193 55.0706L291.876 56.4123ZM302.072 67.6891L301.435 70.6207L301.447 70.6233L301.46 70.6259L302.072 67.6891ZM338.199 65.1907L339.739 67.7654L339.748 67.7598L339.757 67.7542L338.199 65.1907ZM338.604 41.5566L337.24 44.2286L337.251 44.2343L337.262 44.2399L338.604 41.5566ZM308.893 37.3024L307.944 40.1485L307.981 40.161L308.019 40.1725L308.893 37.3024ZM308.082 32.238L309.108 35.0574L309.145 35.0438L309.182 35.0292L308.082 32.238ZM329.015 33.2509L328.228 36.1458L328.241 36.1494L328.255 36.1528L329.015 33.2509ZM339.414 37.8426L337.535 40.1808L340.694 42.7207L342.2 38.9569L339.414 37.8426ZM340.09 35.8169L337.247 34.8592L337.231 34.9067L337.216 34.9548L340.09 35.8169ZM344.209 24.9452L346.955 26.152L348.083 23.5853L345.598 22.2865L344.209 24.9452ZM330.839 20.0833L330.117 22.9953L330.133 22.9992L330.148 23.0029L330.839 20.0833ZM296.805 22.5818L295.317 19.977L295.317 19.977L296.805 22.5818ZM295.455 45.338L294.185 48.0558L294.197 48.0615L294.209 48.0671L295.455 45.338ZM325.707 54.454L326.849 57.2281L326.883 57.2139L326.917 57.1988L325.707 54.454ZM305.989 53.8463L305.276 56.7603L305.989 53.8463ZM294.847 49.5246L296.347 46.9267L293.246 45.1356L292.026 48.5033L294.847 49.5246ZM3.94873 20.8239C3.94873 11.1768 11.7693 3.3562 21.4165 3.3562V-2.6438C8.45559 -2.6438 -2.05127 7.86308 -2.05127 20.8239H3.94873ZM3.94873 68.4012V20.8239H-2.05127V68.4012H3.94873ZM21.4165 85.8689C11.7693 85.8689 3.94873 78.0484 3.94873 68.4012H-2.05127C-2.05127 81.3621 8.4556 91.8689 21.4165 91.8689V85.8689ZM353.848 85.8689H21.4165V91.8689H353.848V85.8689ZM371.316 68.4012C371.316 78.0484 363.495 85.8689 353.848 85.8689V91.8689C366.809 91.8689 377.316 81.3621 377.316 68.4012H371.316ZM371.316 20.8239V68.4012H377.316V20.8239H371.316ZM353.848 3.3562C363.495 3.3562 371.316 11.1768 371.316 20.8239H377.316C377.316 7.86306 366.809 -2.6438 353.848 -2.6438V3.3562ZM21.4165 3.3562H353.848V-2.6438H21.4165V3.3562ZM81.8552 50.542L85.3666 19.9527L79.4057 19.2685L75.8944 49.8578L81.8552 50.542ZM70.6513 20.1197L75.9183 50.709L81.8313 49.6908L76.5642 19.1016L70.6513 20.1197ZM55.5783 22.6106H73.6078V16.6106H55.5783V22.6106ZM53.1293 50.3233L58.5314 20.1391L52.6252 19.0821L47.2232 49.2662L53.1293 50.3233ZM43.7517 19.9507L47.1956 50.1348L53.1569 49.4547L49.7131 19.2705L43.7517 19.9507ZM30.2561 22.6106H46.7324V16.6106H30.2561V22.6106ZM42.2547 68.09L33.2062 19.0661L27.3059 20.1551L36.3544 69.179L42.2547 68.09ZM59.1572 65.6345H39.3045V71.6345H59.1572V65.6345ZM61.5472 40.7121L56.2127 68.0601L62.1017 69.2089L67.4362 41.8608L61.5472 40.7121ZM72.0421 68.1378L67.4503 40.7897L61.5332 41.7832L66.1249 69.1313L72.0421 68.1378ZM89.814 65.6345H69.0835V71.6345H89.814V65.6345ZM95.9123 19.0661L86.8638 68.09L92.7642 69.179L101.813 20.1551L95.9123 19.0661ZM82.3861 22.6106H98.8625V16.6106H82.3861V22.6106ZM157.834 19.4865C157.517 27.1412 157.359 35.3537 157.359 44.1226H163.359C163.359 35.4247 163.516 27.2959 163.829 19.7348L157.834 19.4865ZM144.963 22.6106H160.831V16.6106H144.963V22.6106ZM147.963 37.9777V19.6106H141.963V37.9777H147.963ZM120.113 40.9777H144.963V34.9777H120.113V40.9777ZM117.113 19.6106V37.9777H123.113V19.6106H117.113ZM104.245 22.6106H120.113V16.6106H104.245V22.6106ZM107.785 44.1226C107.785 36.4679 107.604 28.2557 107.242 19.487L101.247 19.7342C101.606 28.4323 101.785 36.5614 101.785 44.1226H107.785ZM107.242 68.7581C107.604 59.9895 107.785 51.7772 107.785 44.1226H101.785C101.785 51.6838 101.606 59.8128 101.247 68.5109L107.242 68.7581ZM120.113 65.6345H104.245V71.6345H120.113V65.6345ZM117.113 50.2674V68.6345H123.113V50.2674H117.113ZM144.963 47.2674H120.113V53.2674H144.963V47.2674ZM147.963 68.6345V50.2674H141.963V68.6345H147.963ZM160.831 65.6345H144.963V71.6345H160.831V65.6345ZM157.359 44.1226C157.359 52.8915 157.517 61.1039 157.834 68.7587L163.829 68.5104C163.516 60.9492 163.359 52.8204 163.359 44.1226H157.359ZM223.82 17.9666L222.537 19.9248L227.556 23.213L228.839 21.2547L223.82 17.9666ZM207.962 22.6106H226.329V16.6106H207.962V22.6106ZM204.304 32.8189C207.408 27.2403 209.543 23.2512 210.667 20.9088L205.258 18.3124C204.221 20.4718 202.169 24.3157 199.061 29.9014L204.304 32.8189ZM198.04 44.7443C199.58 41.5326 201.664 37.5612 204.304 32.8192L199.061 29.9011C196.389 34.7028 194.241 38.7895 192.63 42.1503L198.04 44.7443ZM186.435 33.2934C189.497 38.7871 191.56 42.6052 192.652 44.789L198.018 42.1057C196.859 39.7877 194.736 35.8628 191.675 30.3723L186.435 33.2934ZM179.745 20.9346C181.136 23.7627 183.378 27.8994 186.445 33.3119L191.665 30.3538C188.61 24.9621 186.44 20.9506 185.13 18.2867L179.745 20.9346ZM163.53 22.6106H182.438V16.6106H163.53V22.6106ZM173.44 29.2018C170.206 24.4417 167.756 20.7206 166.077 18.0244L160.984 21.1969C162.726 23.9927 165.227 27.7896 168.476 32.5731L173.44 29.2018ZM183.091 44.0857C180.819 40.4516 177.607 35.4971 173.46 29.2317L168.456 32.5433C172.593 38.7926 175.772 43.6969 178.003 47.2657L183.091 44.0857ZM189.112 54.7474C187.394 51.2657 185.383 47.7069 183.082 44.0713L178.012 47.28C180.213 50.7571 182.117 54.131 183.731 57.4019L189.112 54.7474ZM189.422 68.6345V56.0747H183.422V68.6345H189.422ZM204.046 65.6345H186.422V71.6345H204.046V65.6345ZM201.046 57.2226V68.6345H207.046V57.2226H201.046ZM210.047 39.881C206.589 45.6604 203.683 51.0118 201.338 55.9318L206.754 58.5134C209.001 53.7997 211.812 48.6171 215.196 42.962L210.047 39.881ZM222.525 19.9435C217.696 27.4347 213.537 34.0795 210.051 39.8751L215.192 42.968C218.639 37.2392 222.763 30.6488 227.568 23.1942L222.525 19.9435ZM282.835 30.0521C277.472 29.7817 273.469 29.622 270.852 29.5761L270.746 35.5752C273.26 35.6193 277.181 35.7747 282.533 36.0445L282.835 30.0521ZM279.684 19.6106V33.0483H285.684V19.6106H279.684ZM243.451 22.6106H282.684V16.6106H243.451V22.6106ZM246.451 33.0483V19.6106H240.451V33.0483H246.451ZM255.218 29.576C252.463 29.622 248.481 29.7818 243.295 30.0524L243.607 36.0442C248.775 35.7746 252.671 35.6193 255.318 35.5752L255.218 29.576ZM258.268 55.6695V32.5756H252.268V55.6695H258.268ZM243.295 58.1928C248.481 58.4634 252.463 58.6232 255.218 58.6691L255.318 52.6699C252.671 52.6258 248.775 52.4705 243.607 52.2009L243.295 58.1928ZM246.451 68.6345V55.1968H240.451V68.6345H246.451ZM282.684 65.6345H243.451V71.6345H282.684V65.6345ZM279.684 55.1968V68.6345H285.684V55.1968H279.684ZM270.851 58.6691C273.514 58.6231 277.517 58.4634 282.836 58.193L282.531 52.2007C277.226 52.4705 273.306 52.6258 270.747 52.67L270.851 58.6691ZM267.799 32.5756V55.6695H273.799V32.5756H267.799ZM290.591 64.4914C292.174 62.116 293.502 59.8691 294.559 57.7539L289.193 55.0706C288.27 56.917 287.076 58.9468 285.598 61.1632L290.591 64.4914ZM302.71 64.7576C297.751 63.6796 293.341 62.1389 289.459 60.1557L286.73 65.4988C291.131 67.7473 296.04 69.4478 301.435 70.6207L302.71 64.7576ZM317.333 66.3098C312.554 66.3098 307.672 65.7932 302.685 64.7524L301.46 70.6259C306.826 71.7459 312.119 72.3098 317.333 72.3098V66.3098ZM336.659 62.616C332.762 64.9464 326.461 66.3098 317.333 66.3098V72.3098C326.843 72.3098 334.452 70.927 339.739 67.7654L336.659 62.616ZM342.087 51.5504C342.087 57.0185 340.169 60.4825 336.641 62.6271L339.757 67.7542C345.412 64.3167 348.087 58.6872 348.087 51.5504H342.087ZM337.262 44.2399C339.048 45.1328 340.217 46.1794 340.949 47.3082C341.673 48.4249 342.087 49.7992 342.087 51.5504H348.087C348.087 48.7999 347.419 46.2577 345.983 44.0431C344.554 41.8406 342.481 40.1411 339.946 38.8733L337.262 44.2399ZM317.806 41.2478C327.249 41.2478 333.581 42.3607 337.24 44.2286L339.968 38.8845C334.984 36.3408 327.45 35.2478 317.806 35.2478V41.2478ZM308.019 40.1725C310.513 40.9314 313.833 41.2478 317.806 41.2478V35.2478C314.036 35.2478 311.414 34.934 309.766 34.4324L308.019 40.1725ZM302.854 34.6689C302.854 36.283 303.656 37.5445 304.649 38.4047C305.577 39.2088 306.753 39.7516 307.944 40.1485L309.841 34.4564C309.444 34.324 309.146 34.1977 308.928 34.0867C308.709 33.9743 308.607 33.8954 308.578 33.8706C308.552 33.848 308.627 33.9054 308.708 34.063C308.798 34.2352 308.854 34.4494 308.854 34.6689H302.854ZM307.057 29.4186C306.046 29.7862 305.008 30.3416 304.2 31.2237C303.331 32.1715 302.854 33.3638 302.854 34.6689H308.854C308.854 34.7501 308.838 34.8713 308.785 35.0062C308.733 35.1403 308.665 35.2313 308.622 35.2781C308.584 35.3197 308.583 35.3072 308.662 35.2594C308.742 35.2111 308.883 35.139 309.108 35.0574L307.057 29.4186ZM316.726 28.3601C314.529 28.3601 312.631 28.4349 311.054 28.595C309.524 28.7504 308.109 29.0031 306.983 29.4468L309.182 35.0292C309.541 34.8877 310.31 34.7014 311.66 34.5643C312.965 34.4317 314.646 34.3601 316.726 34.3601V28.3601ZM329.802 30.3559C324.992 29.0484 320.622 28.3601 316.726 28.3601V34.3601C319.942 34.3601 323.765 34.9324 328.228 36.1458L329.802 30.3559ZM341.294 35.5045C338.526 33.2793 334.596 31.6124 329.776 30.3489L328.255 36.1528C332.708 37.3203 335.711 38.7146 337.535 40.1808L341.294 35.5045ZM337.216 34.9548C336.953 35.8332 336.758 36.4054 336.629 36.7284L342.2 38.9569C342.431 38.3795 342.686 37.6012 342.963 36.6789L337.216 34.9548ZM341.462 23.7384C340.11 26.8156 338.705 30.528 337.247 34.8592L342.933 36.7745C344.355 32.5524 345.696 29.0171 346.955 26.152L341.462 23.7384ZM330.148 23.0029C334.89 24.1236 339.107 25.6635 342.819 27.6039L345.598 22.2865C341.387 20.0853 336.691 18.3839 331.529 17.1638L330.148 23.0029ZM316.456 21.2601C320.876 21.2601 325.428 21.8337 330.117 22.9953L331.56 17.1713C326.436 15.902 321.399 15.2601 316.456 15.2601V21.2601ZM298.294 25.1865C302.74 22.6457 308.727 21.2601 316.456 21.2601V15.2601C308.068 15.2601 300.954 16.7556 295.317 19.977L298.294 25.1865ZM292.243 36.0194C292.243 30.9569 294.239 27.5035 298.294 25.1865L295.317 19.977C289.288 23.4222 286.243 28.9273 286.243 36.0194H292.243ZM296.725 42.6202C295.04 41.8327 293.961 40.8961 293.292 39.8925C292.631 38.9012 292.243 37.6542 292.243 36.0194H286.243C286.243 38.6613 286.89 41.1058 288.299 43.2207C289.701 45.3232 291.728 46.9077 294.185 48.0558L296.725 42.6202ZM315.443 45.1741C306.339 45.1741 300.225 44.2178 296.701 42.609L294.209 48.0671C298.968 50.2397 306.179 51.1741 315.443 51.1741V45.1741ZM331.002 52.2932C331.002 48.8989 328.255 47.1592 325.797 46.3533C323.241 45.515 319.715 45.1741 315.443 45.1741V51.1741C319.543 51.1741 322.297 51.5198 323.928 52.0545C325.657 52.6216 325.002 52.9415 325.002 52.2932H331.002ZM326.917 57.1988C327.832 56.7952 328.752 56.2818 329.485 55.592C330.238 54.8833 331.002 53.7753 331.002 52.2932H325.002C325.002 51.9638 325.089 51.6843 325.192 51.4849C325.24 51.3914 325.287 51.3247 325.319 51.2833C325.352 51.2423 325.372 51.2228 325.372 51.2228C325.372 51.2227 325.357 51.2374 325.319 51.2652C325.282 51.2929 325.228 51.3301 325.153 51.3756C325.001 51.4681 324.786 51.581 324.496 51.7093L326.917 57.1988ZM317.806 58.3994C321.564 58.3994 324.724 58.1029 326.849 57.2281L324.564 51.68C323.628 52.0656 321.521 52.3994 317.806 52.3994V58.3994ZM305.276 56.7603C309.697 57.8421 313.878 58.3994 317.806 58.3994V52.3994C314.441 52.3994 310.744 51.9213 306.702 50.9323L305.276 56.7603ZM293.347 52.1226C296.829 54.1333 300.817 55.6692 305.276 56.7603L306.702 50.9323C302.698 49.9526 299.258 48.6074 296.347 46.9267L293.347 52.1226ZM294.535 57.8021C295.645 55.6778 296.687 53.2544 297.668 50.5459L292.026 48.5033C291.116 51.0169 290.178 53.1852 289.217 55.0225L294.535 57.8021Z" fill="url(#paint1_linear_0_335)" mask="url(#path-1-inside-1_0_335)"/>
<defs>
<radialGradient id="paint0_radial_0_335" cx="0" cy="0" r="1" gradientUnits="userSpaceOnUse" gradientTransform="translate(-25.6952 144.7) rotate(-19.6934) scale(310.45 323.022)">
<stop stop-color="#5C4BFA"/>
<stop offset="1" stop-color="#0B1431" stop-opacity="0"/>
</radialGradient>
<linearGradient id="paint1_linear_0_335" x1="95.2281" y1="30.6775" x2="107.188" y2="111.525" gradientUnits="userSpaceOnUse">
<stop stop-color="#5C4BFA"/>
<stop offset="1" stop-color="white" stop-opacity="0"/>
</linearGradient>
</defs>
</svg>
