<svg width="31" height="31" viewBox="0 0 31 31" fill="none" xmlns="http://www.w3.org/2000/svg">
<path d="M13 6.75C13 6.05965 13.5596 5.5 14.25 5.5C14.9404 5.5 15.5 4.94035 15.5 4.25C15.5 3.55965 14.9404 3 14.25 3C12.1789 3 10.5 4.67894 10.5 6.75C10.5 7.44035 11.0597 8 11.75 8C12.4404 8 13 7.44035 13 6.75Z" fill="white"/>
<path d="M18 3C17.3096 3 16.75 3.55965 16.75 4.25C16.75 4.94035 17.3096 5.5 18 5.5H20.5C21.1904 5.5 21.75 4.94035 21.75 4.25C21.75 3.55965 21.1904 3 20.5 3H18Z" fill="white"/>
<path d="M24.25 3C23.5596 3 23 3.55965 23 4.25C23 4.94035 23.5596 5.5 24.25 5.5C24.9404 5.5 25.5 6.05965 25.5 6.75C25.5 7.44035 26.0596 8 26.75 8C27.4404 8 28 7.44035 28 6.75C28 4.67894 26.3211 3 24.25 3Z" fill="white"/>
<path d="M13 10.5C13 9.80965 12.4403 9.25 11.75 9.25C11.0597 9.25 10.5 9.80965 10.5 10.5H7.0625C4.81885 10.5 3 12.3188 3 14.5625V23.9375C3 26.1811 4.81884 28 7.0625 28H16.4375C18.6811 28 20.5 26.1811 20.5 23.9375V20.5C21.1904 20.5 21.75 19.9404 21.75 19.25C21.75 18.5596 21.1904 18 20.5 18V14.5625C20.5 12.3188 18.6811 10.5 16.4375 10.5H13Z" fill="white"/>
<path d="M28 10.5C28 9.80965 27.4404 9.25 26.75 9.25C26.0596 9.25 25.5 9.80965 25.5 10.5V13C25.5 13.6904 26.0596 14.25 26.75 14.25C27.4404 14.25 28 13.6904 28 13V10.5Z" fill="white"/>
<path d="M28 16.75C28 16.0596 27.4404 15.5 26.75 15.5C26.0596 15.5 25.5 16.0596 25.5 16.75C25.5 17.4404 24.9404 18 24.25 18C23.5596 18 23 18.5596 23 19.25C23 19.9404 23.5596 20.5 24.25 20.5C26.3211 20.5 28 18.8211 28 16.75Z" fill="white"/>
</svg>
