<svg width="35" height="39" viewBox="0 0 35 39" fill="none" xmlns="http://www.w3.org/2000/svg">
<path fill-rule="evenodd" clip-rule="evenodd" d="M13.2817 2.58775C10.9595 3.77125 9.05968 4.77272 9.06008 4.81345C9.06112 4.91859 14.6333 7.67953 14.8311 7.6728C14.9211 7.66985 15.5737 7.37593 16.2813 7.01971L17.5681 6.37217L20.3788 7.7858L22.6802 6.77404C26.148 5.24946 26.5082 5.0824 26.4517 5.02627C26.3768 4.9518 25.133 4.29805 21.7584 2.55987C20.1275 1.71979 18.5446 0.896112 18.2407 0.729442C17.9368 0.562772 17.6468 0.428697 17.5961 0.431292C17.5454 0.433888 15.6039 1.4043 13.2817 2.58775ZM3.09674 7.7478L0.67941 8.96943L0.67941 14.3309C0.67941 17.2798 0.711152 19.6924 0.750087 19.6924C0.788888 19.6924 1.97822 19.188 3.39298 18.5715L5.96529 17.4506L5.96529 11.7992L7.22229 12.4692C8.19091 12.9851 9.16012 13.4999 10.1299 14.0136L11.7805 14.888L12.515 14.563C12.9756 14.3589 13.4353 14.1528 13.8941 13.9447C14.2486 13.7832 15.1188 13.3997 15.8279 13.0924C16.537 12.7849 17.1933 12.4757 17.2864 12.4052C17.41 12.3116 15.9024 11.4965 11.7102 9.39031C8.55019 7.80265 5.86332 6.5087 5.73941 6.51491C5.6155 6.52111 4.4263 7.07584 3.09674 7.7478ZM26.8873 8.09086C25.241 8.81802 23.8928 9.44204 23.8913 9.47762C23.8898 9.51317 24.7872 10.0352 25.8855 10.6375C26.9837 11.2399 27.8822 11.7649 27.8822 11.8045C27.8822 11.844 26.9104 12.3046 25.7228 12.8284C24.535 13.3521 21.5328 14.6786 19.051 15.7762L10.7354 19.4537C8.64366 20.3789 6.75817 21.2128 6.54546 21.307C2.27289 23.1993 1.09853 23.7244 0.937257 23.8146C0.775085 23.9053 0.738353 24.4325 0.709488 27.0785L0.675049 30.2344L4.99838 32.3896L7.99583 31.066C9.64448 30.3382 10.9933 29.7045 10.9933 29.6578C10.9933 29.6113 10.6886 29.4171 10.3165 29.2261C9.94409 29.0351 9.17545 28.6123 8.60819 28.2863C8.04097 27.9603 7.47537 27.6612 7.35119 27.6216C7.22706 27.582 7.12729 27.5128 7.12931 27.4677C7.13138 27.4227 8.45132 26.8093 10.0623 26.1045C13.1914 24.7357 15.5861 23.6807 20.727 21.4062C23.0258 20.3893 25.325 19.373 27.6244 18.3574C29.6453 17.4649 31.9949 16.4227 32.8458 16.0412L34.3929 15.3476L34.4618 8.96415L32.2694 7.86314C31.0634 7.25764 30.0327 6.7637 29.9786 6.76551C29.9246 6.76718 28.5336 7.36352 26.8873 8.09086ZM33.8055 19.6057C33.4824 19.7601 32.8442 20.0491 32.3873 20.248C31.9304 20.4469 31.0634 20.8296 30.4607 21.0987L29.3648 21.5877L29.3398 24.3898C29.326 25.9309 29.268 27.185 29.2109 27.1769C29.0812 27.158 27.0274 26.1275 24.9628 25.0451C23.4727 24.264 23.3791 24.233 23.0289 24.4026C22.8265 24.5008 21.6166 25.0317 20.3402 25.5826C19.0639 26.1335 17.978 26.6201 17.9269 26.6642C17.876 26.7082 20.4448 28.0704 23.6355 29.6914L29.4367 32.6387L31.9148 31.3845C33.2777 30.6948 34.4366 30.0656 34.4899 29.9865C34.6101 29.8086 34.5998 19.3005 34.4795 19.3147C34.4319 19.3203 34.1285 19.4513 33.8055 19.6057ZM20.0824 31.9395C19.6525 32.1203 19.2228 32.3013 18.7932 32.4827C17.4958 33.0318 17.75 33.05 16.2066 32.2983C15.1785 31.7976 14.7354 31.6431 14.5431 31.7181C14.3988 31.7743 13.1571 32.3209 11.7836 32.9326C10.4101 33.5444 9.23876 34.0449 9.18049 34.0449C8.60423 34.0449 9.56224 34.6049 13.259 36.4293L17.5944 38.5687L19.4186 37.6877C20.4218 37.2031 22.4454 36.2326 23.9155 35.5312C25.3855 34.8296 26.5701 34.2374 26.5479 34.215C26.5256 34.1928 25.2938 33.574 23.8106 32.8399L21.1138 31.5054L20.0824 31.9395Z" fill="white"/>
</svg>
