<svg width="38" height="41" viewBox="0 0 38 41" fill="none" xmlns="http://www.w3.org/2000/svg">
<path d="M8.53954 4.51739C12.4149 0.91848 17.0496 0.0187531 19.0104 0.0187531C20.9711 0.0187531 25.8615 0.91848 29.7368 4.51739C30.5442 4.19606 32.3665 3.29633 33.197 2.26807C32.2743 4.6245 28.6296 10.0443 21.4325 12.872C21.2609 12.5342 20.5362 11.8587 19.0104 11.8587C17.4845 11.8587 17.0155 12.5342 16.8439 12.872C9.64679 10.0443 6.0021 4.6245 5.07939 2.26807C5.90983 3.29633 7.73217 4.19606 8.53954 4.51739Z" fill="white"/>
<path d="M10.7889 11.9588C11.8804 12.723 14.337 14.3412 15.4317 14.7001C13.3474 15.3065 9.50071 15.6072 10.7889 11.9588Z" fill="white"/>
<path d="M6.4419 7.64753C6.95177 8.35361 8.14324 9.88541 8.83022 10.3639C7.72989 12.748 7.12323 17.5161 13.4992 17.5161L13.3382 19.5845L8.61525 22.0766C10.8369 22.7024 15.6721 25.5583 17.2396 31.9764L19.1204 38.014L21.0352 31.9764C22.6027 25.5583 27.4379 22.7024 29.6595 22.0766L24.9366 19.5845L24.7756 17.5161C31.1516 17.5161 30.5449 12.748 29.4446 10.3639C30.1316 9.88541 31.323 8.35361 31.8329 7.64753C33.8148 9.48807 34.0302 13.1161 33.8901 14.7001C33.8901 26.6573 36.2966 32.2431 37.4999 33.5414L32.4022 29.9245L28.9507 35.2176L24.9366 31.9764L19.1204 40.9812L13.3382 31.9764L9.3241 35.2176L5.8726 29.9245L0.774902 33.5414C1.97816 32.2431 4.38467 26.6573 4.38467 14.7001C4.24462 13.1161 4.45998 9.48807 6.4419 7.64753Z" fill="white"/>
<path d="M27.4859 11.9588C26.3944 12.723 23.9378 14.3412 22.8431 14.7001C24.9274 15.3065 28.7741 15.6072 27.4859 11.9588Z" fill="white"/>
<path d="M16.0317 18.1363C16.0317 15.7726 18.1955 14.609 19.2806 14.3227C20.3657 14.609 22.536 15.7726 22.536 18.1363V20.713L24.9777 22.1217C23.0787 23.2211 19.2871 26.4987 19.2871 30.8138C19.2871 26.4987 15.489 23.2211 13.59 22.1217L16.0317 20.713V18.1363Z" fill="white"/>
</svg>
