<svg width="38" height="33" viewBox="0 0 38 33" fill="none" xmlns="http://www.w3.org/2000/svg">
<path fill-rule="evenodd" clip-rule="evenodd" d="M33.6709 0.478494C34.1225 0.281697 34.6167 0.213823 35.1021 0.281936C35.5876 0.350049 36.0466 0.551659 36.4313 0.865781C36.816 1.1799 37.1123 1.59505 37.2895 2.06802C37.4667 2.54099 37.5182 3.05449 37.4386 3.55507L33.2945 29.5848C32.8925 32.0957 30.2321 33.5356 28.0083 32.2849C26.1482 31.2385 23.3855 29.6265 20.9004 27.9444C19.6579 27.1024 15.8518 24.4061 16.3196 22.4875C16.7216 20.8471 23.1169 14.6826 26.7713 11.0176C28.2057 9.57766 27.5515 8.74702 25.8577 10.0715C21.6514 13.36 14.898 18.3608 12.6651 19.7686C10.6954 21.0098 9.66848 21.2217 8.44059 21.0098C6.20041 20.6238 4.12285 20.0259 2.42719 19.2974C0.135848 18.3135 0.247308 15.0515 2.42536 14.1017L33.6709 0.478494Z" fill="white"/>
</svg>
