<svg width="110" height="111" viewBox="0 0 110 111" fill="none" xmlns="http://www.w3.org/2000/svg">
<circle cx="55" cy="52.9325" r="38" fill="url(#paint0_linear_0_191)"/>
<g filter="url(#filter0_d_0_191)">
<path d="M70.482 51.3206C72.506 51.5254 72.506 54.4746 70.482 54.6794L59.3189 55.8095C58.5211 55.8902 57.8902 56.5211 57.8095 57.3189L56.6794 68.482C56.4746 70.506 53.5254 70.506 53.3206 68.482L52.1905 57.3189C52.1098 56.5211 51.4789 55.8902 50.6811 55.8095L39.518 54.6794C37.494 54.4746 37.494 51.5254 39.518 51.3206L50.6811 50.1905C51.4789 50.1098 52.1098 49.4789 52.1905 48.6811L53.3206 37.518C53.5254 35.494 56.4746 35.494 56.6794 37.518L57.8095 48.6811C57.8902 49.4789 58.5211 50.1098 59.3189 50.1905L70.482 51.3206Z" fill="white"/>
</g>
<defs>
<filter id="filter0_d_0_191" x="0.0138359" y="0.0754118" width="109.972" height="109.972" filterUnits="userSpaceOnUse" color-interpolation-filters="sRGB">
<feFlood flood-opacity="0" result="BackgroundImageFix"/>
<feColorMatrix in="SourceAlpha" type="matrix" values="0 0 0 0 0 0 0 0 0 0 0 0 0 0 0 0 0 0 127 0" result="hardAlpha"/>
<feOffset dy="2.06158"/>
<feGaussianBlur stdDeviation="18.9931"/>
<feColorMatrix type="matrix" values="0 0 0 0 1 0 0 0 0 1 0 0 0 0 1 0 0 0 1 0"/>
<feBlend mode="normal" in2="BackgroundImageFix" result="effect1_dropShadow_0_191"/>
<feBlend mode="normal" in="SourceGraphic" in2="effect1_dropShadow_0_191" result="shape"/>
</filter>
<linearGradient id="paint0_linear_0_191" x1="23.5" y1="37.9325" x2="55" y2="90.9325" gradientUnits="userSpaceOnUse">
<stop stop-color="#5C4BFA"/>
<stop offset="1" stop-color="#937CEC"/>
</linearGradient>
</defs>
</svg>
